<svg width="282" height="144" viewBox="0 0 282 144" fill="none" xmlns="http://www.w3.org/2000/svg">
<rect x="2.5" y="2" width="277" height="140" fill="#C4C4C4" stroke="black" stroke-width="4"/>
<rect x="-2" y="2" width="28" height="28" transform="matrix(-1 0 0 1 187 99)" fill="#FFD600" stroke="#20202D" stroke-width="4"/>
<rect x="-2" y="2" width="28" height="28" transform="matrix(-1 0 0 1 222 99)" fill="#FFD600" stroke="#20202D" stroke-width="4"/>
<rect x="-2" y="2" width="28" height="28" transform="matrix(-1 0 0 1 257 99)" fill="#FFD600" stroke="#20202D" stroke-width="4"/>
<path d="M28.196 14.768H23.228C23.336 15.416 23.48 17.18 23.48 17.936C23.48 18.548 23.48 19.592 23.444 20.852C22.724 20.888 22.004 20.924 21.356 20.924C20.06 20.924 18.512 20.888 16.388 20.636L16.46 24.992C17.684 25.136 19.088 25.172 21.5 25.172C22.076 25.172 22.724 25.136 23.408 25.1C23.408 26.108 23.408 27.116 23.408 28.124C23.408 28.952 23.408 29.816 23.444 30.68C19.016 32.588 15.416 35.864 15.416 38.996C15.416 42.812 20.348 45.836 23.84 45.836C26.216 45.836 27.8 44.648 27.8 40.184C27.8 38.96 27.728 36.152 27.656 33.308C29.852 32.66 32.192 32.3 34.424 32.3C37.556 32.3 39.716 33.74 39.716 36.188C39.716 38.816 37.412 40.256 34.496 40.796C33.236 41.012 31.688 41.048 30.068 41.048L31.724 45.692C33.2 45.584 34.784 45.476 36.44 45.116C42.164 43.676 44.396 40.472 44.396 36.224C44.396 31.256 40.04 28.376 34.496 28.376C32.516 28.376 30.032 28.7 27.584 29.312C27.584 28.844 27.584 28.412 27.584 27.98C27.584 26.936 27.584 25.82 27.62 24.74C29.96 24.452 32.444 24.092 34.496 23.624L34.388 19.16C32.516 19.7 30.14 20.168 27.764 20.456C27.8 19.556 27.836 18.692 27.872 17.9C27.944 16.964 28.088 15.416 28.196 14.768ZM38.456 18.656L36.476 22.148C38.708 23.228 43.424 25.928 45.152 27.404L47.312 23.732C45.404 22.364 41.228 19.988 38.456 18.656ZM19.844 38.816C19.844 37.556 21.32 36.08 23.516 34.892C23.588 36.836 23.624 38.492 23.624 39.392C23.624 40.616 23.12 40.904 22.472 40.904C21.536 40.904 19.844 39.932 19.844 38.816ZM56.24 36.512V34.172H62.252V36.512H56.24ZM62.252 28.772V31.004H56.24V28.772H62.252ZM66.392 25.172H52.172V46.916H56.24V39.644H62.252V42.848C62.252 43.28 62.108 43.424 61.676 43.424C61.208 43.46 59.768 43.46 58.436 43.388C58.976 44.36 59.588 45.944 59.804 47.024C62 47.024 63.656 46.952 64.808 46.34C66.032 45.728 66.392 44.72 66.392 42.884V25.172ZM76.652 42.344C76.652 42.848 76.472 42.992 75.896 42.992C75.284 43.028 73.412 43.028 71.576 42.956C72.224 44.072 72.908 45.836 73.124 46.988C75.716 47.024 77.66 46.916 79.028 46.268C80.468 45.584 80.864 44.54 80.864 42.416V24.524H76.652V42.344ZM73.412 25.532H69.488V40.22H73.412V25.532ZM75.464 18.836C76.364 17.576 77.336 16.172 78.2 14.768L73.556 13.4C72.836 15.056 71.684 17.18 70.604 18.836H60.596L62.576 18.152C61.964 16.784 60.524 14.84 59.228 13.472L55.16 14.876C56.168 16.064 57.212 17.612 57.86 18.836H50.192V22.688H82.772V18.836H75.464ZM101.384 15.164L96.308 14.876C96.38 15.668 96.38 16.388 96.272 18.08C96.2 18.908 96.092 19.88 95.984 20.996C93.356 20.78 90.656 20.312 88.568 19.628L88.316 23.768C90.44 24.38 92.996 24.812 95.48 25.064C95.3 26.684 95.084 28.376 94.868 29.996C92.528 29.744 90.116 29.348 87.776 28.556L87.524 32.912C89.432 33.452 91.808 33.848 94.436 34.1C94.292 35.576 94.184 36.872 94.184 37.736C94.184 43.748 98.18 46.196 103.832 46.196C111.716 46.196 116.612 42.308 116.612 36.872C116.612 33.812 115.496 31.256 113.12 28.232L108.044 29.312C110.42 31.544 111.752 33.848 111.752 36.296C111.752 39.248 109.016 41.552 103.976 41.552C100.448 41.552 98.612 39.968 98.612 36.98C98.612 36.332 98.684 35.432 98.756 34.352C99.224 34.352 99.728 34.352 100.196 34.352C102.464 34.352 104.552 34.208 106.568 34.028L106.676 29.744C104.336 30.032 101.672 30.176 99.44 30.176C99.368 30.176 99.26 30.176 99.188 30.176C99.368 28.556 99.584 26.864 99.8 25.28C102.68 25.28 104.66 25.136 106.82 24.92L106.964 20.636C105.272 20.888 102.968 21.104 100.376 21.14C100.52 19.952 100.664 18.98 100.772 18.368C100.916 17.432 101.06 16.46 101.384 15.164ZM122.732 29.996L125 34.532C129.428 33.236 134 31.292 137.708 29.348V40.868C137.708 42.452 137.6 44.72 137.456 45.584H143.144C142.892 44.684 142.82 42.452 142.82 40.868V26.324C146.312 24.02 149.768 21.212 152.504 18.512L148.616 14.804C146.276 17.648 142.172 21.248 138.464 23.552C134.468 26 129.176 28.34 122.732 29.996ZM165.176 16.64L161.792 20.24C164.42 22.076 168.92 26 170.792 28.016L174.464 24.272C172.376 22.076 167.696 18.332 165.176 16.64ZM160.676 40.616L163.7 45.368C168.776 44.504 173.42 42.488 177.056 40.292C182.852 36.8 187.64 31.832 190.376 26.972L187.568 21.896C185.3 26.756 180.62 32.264 174.464 35.9C170.972 37.988 166.292 39.824 160.676 40.616ZM212.984 15.488L207.764 13.868C207.44 15.092 206.684 16.748 206.108 17.612C204.308 20.744 200.96 25.676 194.66 29.6L198.548 32.588C202.184 30.068 205.532 26.612 208.052 23.264H218.348C217.808 25.496 216.26 28.628 214.388 31.22C212.12 29.708 209.852 28.232 207.944 27.152L204.74 30.428C206.576 31.58 208.952 33.2 211.292 34.928C208.304 37.916 204.308 40.832 198.08 42.74L202.256 46.376C207.872 44.252 211.976 41.192 215.144 37.844C216.62 39.032 217.952 40.148 218.924 41.048L222.344 36.98C221.3 36.116 219.896 35.072 218.348 33.956C220.904 30.356 222.704 26.504 223.676 23.588C224 22.688 224.468 21.716 224.864 21.032L221.192 18.764C220.4 19.016 219.176 19.16 218.06 19.16H210.752C211.184 18.368 212.084 16.748 212.984 15.488ZM231.812 27.332V32.984C233.144 32.876 235.556 32.804 237.608 32.804H256.94C258.452 32.804 260.288 32.948 261.152 32.984V27.332C260.216 27.404 258.632 27.548 256.94 27.548H237.608C235.736 27.548 233.108 27.44 231.812 27.332ZM33.272 56.588H28.124C28.268 57.488 28.34 58.784 28.34 59.9V61.772H22.112C20.852 61.772 18.872 61.736 17.504 61.52V66.236C18.62 66.128 20.888 66.092 22.184 66.092H35.216C34.172 67.568 31.94 69.656 29.168 71.456C26.036 73.436 21.428 75.92 14.48 77.468L17.252 81.716C21.14 80.528 24.992 79.052 28.304 77.288V83.444C28.304 84.884 28.16 87.044 28.016 88.052H33.2C33.092 86.936 32.948 84.884 32.948 83.444C32.948 81.176 32.984 77.252 32.984 74.372C35.972 72.104 38.708 69.404 40.544 67.316C41.336 66.452 42.416 65.228 43.352 64.328L40.364 61.412C39.5 61.664 38.492 61.772 37.376 61.772H33.056V59.9C33.056 58.784 33.164 57.452 33.272 56.588ZM43.856 82.076L46.88 78.116C43.424 75.74 41.552 74.696 38.24 72.896L35.252 76.352C38.384 78.08 40.724 79.592 43.856 82.076ZM66.68 64.616L62.396 66.02C63.296 67.892 64.88 72.248 65.312 74.012L69.632 72.5C69.128 70.844 67.364 66.164 66.68 64.616ZM79.964 67.244L74.924 65.624C74.492 70.124 72.764 74.912 70.316 77.972C67.328 81.716 62.324 84.452 58.364 85.496L62.144 89.348C66.356 87.764 70.856 84.74 74.204 80.42C76.652 77.252 78.164 73.508 79.1 69.872C79.316 69.152 79.532 68.396 79.964 67.244ZM58.328 66.524L54.008 68.072C54.872 69.656 56.672 74.444 57.284 76.388L61.676 74.732C60.956 72.716 59.228 68.36 58.328 66.524ZM95.804 82.544C95.804 83.984 95.66 86.144 95.444 87.584H101.06C100.916 86.108 100.736 83.588 100.736 82.544V72.356C104.624 73.688 110.024 75.776 113.732 77.72L115.784 72.752C112.472 71.132 105.56 68.576 100.736 67.172V61.844C100.736 60.368 100.916 58.784 101.06 57.524H95.444C95.696 58.784 95.804 60.584 95.804 61.844V82.544ZM136.628 60.836V65.444C141.164 65.876 147.68 65.84 152.108 65.444V60.8C148.22 61.268 141.056 61.448 136.628 60.836ZM139.508 76.208L135.368 75.812C134.972 77.648 134.756 79.088 134.756 80.492C134.756 84.2 137.744 86.396 143.936 86.396C148.004 86.396 150.884 86.144 153.224 85.712L153.152 80.852C149.984 81.5 147.32 81.788 144.116 81.788C140.444 81.788 139.076 80.816 139.076 79.232C139.076 78.26 139.22 77.396 139.508 76.208ZM131.084 58.424L126.044 57.992C126.008 59.144 125.792 60.512 125.684 61.52C125.288 64.292 124.172 70.376 124.172 75.776C124.172 80.672 124.856 85.064 125.576 87.548L129.752 87.26C129.716 86.756 129.68 86.18 129.68 85.784C129.68 85.424 129.752 84.632 129.86 84.092C130.256 82.184 131.444 78.26 132.452 75.272L130.22 73.508C129.716 74.696 129.14 75.956 128.6 77.18C128.492 76.46 128.456 75.524 128.456 74.84C128.456 71.24 129.716 64.04 130.184 61.628C130.328 60.98 130.796 59.18 131.084 58.424ZM169.856 57.452L164.06 57.38C164.384 58.82 164.528 60.548 164.528 62.24C164.528 65.336 164.168 74.804 164.168 79.628C164.168 85.784 167.984 88.376 173.888 88.376C182.096 88.376 187.208 83.552 189.512 80.096L186.236 76.136C183.644 80.06 179.864 83.48 173.924 83.48C171.116 83.48 168.956 82.292 168.956 78.656C168.956 74.192 169.244 66.128 169.388 62.24C169.46 60.8 169.64 58.964 169.856 57.452ZM193.966 61.232L194.434 66.164C198.61 65.264 205.954 64.472 209.338 64.112C206.926 65.948 204.01 70.052 204.01 75.236C204.01 83.012 211.138 87.08 218.662 87.584L220.354 82.652C214.27 82.328 208.726 80.168 208.726 74.264C208.726 69.98 211.966 65.3 216.322 64.148C218.23 63.716 221.326 63.716 223.27 63.68L223.234 59.072C220.714 59.144 216.754 59.396 213.046 59.684C206.458 60.26 200.518 60.8 197.53 61.052C196.81 61.124 195.406 61.196 193.966 61.232ZM228.778 69.8L230.902 74.372C232.45 73.688 234.718 72.464 237.31 71.168C237.634 71.888 237.958 72.644 238.282 73.4C240.118 77.756 241.99 83.84 243.106 88.376L248.038 87.08C246.85 83.048 244.078 75.344 242.386 71.42C242.062 70.7 241.738 69.944 241.378 69.188C245.23 67.424 249.154 65.948 251.962 65.948C254.662 65.948 256.282 67.424 256.282 69.26C256.282 71.852 254.302 73.328 251.602 73.328C250.018 73.328 248.218 72.788 246.598 72.104L246.49 76.64C247.858 77.144 250.09 77.648 252.034 77.648C257.542 77.648 260.998 74.444 260.998 69.404C260.998 65.228 257.65 61.844 252.07 61.844C250.45 61.844 248.686 62.168 246.886 62.708L249.73 60.62C248.506 59.324 245.806 56.984 244.51 56.012L241.198 58.316C242.566 59.36 244.87 61.592 246.166 62.924C244.078 63.608 241.882 64.508 239.686 65.48C239.11 64.256 238.534 63.104 237.994 62.06C237.598 61.376 236.878 59.9 236.554 59.252L231.874 61.052C232.594 61.988 233.494 63.32 233.998 64.22C234.538 65.156 235.078 66.2 235.582 67.28C234.502 67.748 233.386 68.216 232.342 68.648C231.766 68.9 230.182 69.44 228.778 69.8ZM20.312 100.82L20.384 105.536C21.176 105.392 22.472 105.284 23.372 105.212C25.1 105.104 30.104 104.852 32.084 104.78C29.24 107.732 20.348 114.968 15.56 118.64L18.944 122.204C22.796 118.28 26.72 114.716 32.3 114.716C36.404 114.716 39.032 116.84 39.032 119.684C39.032 124.436 33.128 126.56 23.156 125.264L24.416 129.944C37.736 131.024 43.964 126.848 43.964 119.72C43.964 114.68 39.644 110.936 33.308 110.936C32.408 110.936 31.076 111.044 29.888 111.404C33.02 109.028 36.476 106.256 38.564 104.708C39.068 104.384 39.896 103.844 40.544 103.484L38.132 100.316C37.448 100.496 36.368 100.64 35.54 100.712C33.2 100.856 25.172 100.964 23.228 100.964C22.04 100.964 20.888 100.892 20.312 100.82ZM73.16 116.228C73.16 121.844 67.4 124.796 58.472 125.804L61.064 130.268C71.072 128.9 78.2 124.112 78.2 116.408C78.2 110.756 74.204 107.516 68.516 107.516C64.304 107.516 60.272 108.56 57.644 109.172C56.456 109.424 54.908 109.676 53.684 109.784L55.052 114.932C56.096 114.536 57.5 113.96 58.544 113.672C60.38 113.132 63.944 111.908 67.904 111.908C71.288 111.908 73.16 113.852 73.16 116.228ZM59.012 98.948L58.292 103.268C62.432 103.988 70.244 104.708 74.456 104.996L75.176 100.568C71.36 100.532 63.188 99.848 59.012 98.948ZM101.132 99.56L95.768 99.02C95.804 101.288 95.516 103.916 95.012 106.652C93.176 106.796 91.484 106.904 90.368 106.94C89.036 106.976 87.812 107.048 86.516 106.94L86.948 111.836C88.028 111.656 89.936 111.404 90.944 111.224C91.628 111.152 92.744 111.008 94.04 110.864C92.744 115.796 90.26 123.068 86.768 127.784L91.448 129.656C94.76 124.364 97.424 115.832 98.792 110.36C99.8 110.288 100.7 110.216 101.276 110.216C103.544 110.216 104.768 110.612 104.768 113.492C104.768 117.056 104.3 121.412 103.328 123.464C102.752 124.652 101.816 125.012 100.628 125.012C99.656 125.012 97.604 124.652 96.2 124.256L96.992 129.008C98.216 129.26 99.908 129.512 101.312 129.512C104.012 129.512 106.028 128.72 107.216 126.2C108.764 123.068 109.268 117.236 109.268 112.988C109.268 107.804 106.568 106.112 102.752 106.112C101.996 106.112 100.916 106.184 99.728 106.256C99.98 104.96 100.232 103.628 100.484 102.548C100.664 101.648 100.916 100.496 101.132 99.56ZM113.516 102.944L109.232 104.78C111.788 107.948 114.344 114.464 115.28 118.46L119.852 116.336C118.772 112.916 115.748 106.04 113.516 102.944ZM136.664 118.748H140.336L141.308 106.436L141.488 101.072H135.512L135.692 106.436L136.664 118.748ZM138.5 128.324C140.3 128.324 141.668 127.028 141.668 125.156C141.668 123.248 140.3 121.952 138.5 121.952C136.7 121.952 135.332 123.248 135.332 125.156C135.332 127.028 136.664 128.324 138.5 128.324Z" fill="#20202D"/>
</svg>
