<svg width="19" height="18" viewBox="0 0 19 18" fill="none" xmlns="http://www.w3.org/2000/svg">
<g clip-path="url(#clip0)">
<path d="M18.5 3.41775C17.8377 3.71175 17.126 3.90975 16.379 3.999C17.1418 3.54225 17.7275 2.8185 18.0028 1.956C17.2895 2.379 16.499 2.6865 15.6575 2.85225C14.9847 2.1345 14.024 1.686 12.962 1.686C10.5777 1.686 8.82575 3.9105 9.36425 6.21975C6.296 6.066 3.575 4.596 1.75325 2.36175C0.78575 4.0215 1.2515 6.19275 2.8955 7.29225C2.291 7.27275 1.721 7.107 1.22375 6.83025C1.18325 8.541 2.4095 10.1415 4.1855 10.4978C3.66575 10.6388 3.0965 10.6718 2.5175 10.5608C2.987 12.0278 4.3505 13.095 5.9675 13.125C4.415 14.3423 2.459 14.886 0.5 14.655C2.13425 15.7028 4.076 16.314 6.161 16.314C13.0175 16.314 16.8912 10.5233 16.6572 5.3295C17.3787 4.80825 18.005 4.158 18.5 3.41775Z" fill="#E9E9E9"/>
</g>
<defs>
<clipPath id="clip0">
<rect width="18" height="18" fill="white" transform="translate(0.5)"/>
</clipPath>
</defs>
</svg>
